<svg width="96" height="20" viewBox="0 0 96 20" xmlns="http://www.w3.org/2000/svg" fill="#33a16f">
  <!-- Menu Icon -->
  <g transform="translate(0, 2)">
    <rect x="0" y="0" width="20" height="2" rx="1"/>
    <rect x="0" y="6" width="20" height="2" rx="1"/>
    <rect x="0" y="12" width="20" height="2" rx="1"/>
  </g>

  <!-- Sun Icon -->
  <g transform="translate(26, 0)">
    <circle cx="10" cy="10" r="4"/>
    <line x1="10" y1="0" x2="10" y2="4" stroke="#33a16f" stroke-width="2"/>
    <line x1="10" y1="16" x2="10" y2="20" stroke="#33a16f" stroke-width="2"/>
    <line x1="0" y1="10" x2="4" y2="10" stroke="#33a16f" stroke-width="2"/>
    <line x1="16" y1="10" x2="20" y2="10" stroke="#33a16f" stroke-width="2"/>
    <line x1="3" y1="3" x2="6" y2="6" stroke="#33a16f" stroke-width="2"/>
    <line x1="14" y1="14" x2="17" y2="17" stroke="#33a16f" stroke-width="2"/>
    <line x1="3" y1="17" x2="6" y2="14" stroke="#33a16f" stroke-width="2"/>
    <line x1="14" y1="6" x2="17" y2="3" stroke="#33a16f" stroke-width="2"/>
  </g>

  <!-- Sleep Icon (Zzz) -->
  <g transform="translate(52, 0)">
    <text x="2" y="8" font-size="6" font-family="Arial" fill="#33a16f">Z</text>
    <text x="6" y="12" font-size="6" font-family="Arial" fill="#33a16f">Z</text>
    <text x="10" y="16" font-size="6" font-family="Arial" fill="#33a16f">Z</text>
  </g>

  <!-- GitHub Icon -->
  <g transform="translate(76, 0)">
    <path fill="#33a16f" transform="scale(0.8)" d="M12 .297c-6.63 0-12 5.373-12 12c0 5.303 3.438 9.8 8.205 11.385c.6.113.82-.258.82-.577c0-.285-.01-1.04-.015-2.04c-3.338.724-4.042-1.61-4.042-1.61C4.422 18.07 3.633 17.7 3.633 17.7c-1.087-.744.084-.729.084-.729c1.205.084 1.838 1.236 1.838 1.236c1.07 1.835 2.809 1.305 3.495.998c.108-.776.417-1.305.76-1.605c-2.665-.3-5.466-1.332-5.466-5.93c0-1.31.465-2.38 1.235-3.22c-.135-.303-.54-1.523.105-3.176c0 0 1.005-.322 3.3 1.23c.96-.267 1.98-.399 3-.405c1.02.006 2.04.138 3 .405c2.28-1.552 3.285-1.23 3.285-1.23c.645 1.653.24 2.873.12 3.176c.765.84 1.23 1.91 1.23 3.22c0 4.61-2.805 5.625-5.475 5.92c.42.36.81 1.096.81 2.22c0 1.606-.015 2.896-.015 3.286c0 .315.21.69.825.57C20.565 22.092 24 17.592 24 12.297c0-6.627-5.373-12-12-12z"/>
  </g>
</svg>
