<svg width="506" height="20" viewBox="0 0 506 20" xmlns="http://www.w3.org/2000/svg" fill="#33a16f">
  <!-- Menu Icon -->
  <g transform="translate(0, 2)">
    <rect x="0" y="0" width="20" height="2" rx="1"/>
    <rect x="0" y="6" width="20" height="2" rx="1"/>
    <rect x="0" y="12" width="20" height="2" rx="1"/>
  </g>

  <!-- Sun Icon -->
  <g transform="translate(26, 0)">
    <circle cx="10" cy="10" r="4"/>
    <line x1="10" y1="0" x2="10" y2="4" stroke="#33a16f" stroke-width="2"/>
    <line x1="10" y1="16" x2="10" y2="20" stroke="#33a16f" stroke-width="2"/>
    <line x1="0" y1="10" x2="4" y2="10" stroke="#33a16f" stroke-width="2"/>
    <line x1="16" y1="10" x2="20" y2="10" stroke="#33a16f" stroke-width="2"/>
    <line x1="3" y1="3" x2="6" y2="6" stroke="#33a16f" stroke-width="2"/>
    <line x1="14" y1="14" x2="17" y2="17" stroke="#33a16f" stroke-width="2"/>
    <line x1="3" y1="17" x2="6" y2="14" stroke="#33a16f" stroke-width="2"/>
    <line x1="14" y1="6" x2="17" y2="3" stroke="#33a16f" stroke-width="2"/>
  </g>

  <!-- Sleep Icon (Zzz) -->
  <g transform="translate(52, 0)">
    <text x="2" y="8" font-size="6" font-family="Arial" fill="#33a16f">Z</text>
    <text x="6" y="12" font-size="6" font-family="Arial" fill="#33a16f">Z</text>
    <text x="10" y="16" font-size="6" font-family="Arial" fill="#33a16f">Z</text>
  </g>

  <!-- GitHub Icon -->
  <g transform="translate(76, 0)">
    <path fill="#33a16f" transform="scale(0.8)" d="M12 .297c-6.63 0-12 5.373-12 12c0 5.303 3.438 9.8 8.205 11.385c.6.113.82-.258.82-.577c0-.285-.01-1.04-.015-2.04c-3.338.724-4.042-1.61-4.042-1.61C4.422 18.07 3.633 17.7 3.633 17.7c-1.087-.744.084-.729.084-.729c1.205.084 1.838 1.236 1.838 1.236c1.07 1.835 2.809 1.305 3.495.998c.108-.776.417-1.305.76-1.605c-2.665-.3-5.466-1.332-5.466-5.93c0-1.31.465-2.38 1.235-3.22c-.135-.303-.54-1.523.105-3.176c0 0 1.005-.322 3.3 1.23c.96-.267 1.98-.399 3-.405c1.02.006 2.04.138 3 .405c2.28-1.552 3.285-1.23 3.285-1.23c.645 1.653.24 2.873.12 3.176c.765.84 1.23 1.91 1.23 3.22c0 4.61-2.805 5.625-5.475 5.92c.42.36.81 1.096.81 2.22c0 1.606-.015 2.896-.015 3.286c0 .315.21.69.825.57C20.565 22.092 24 17.592 24 12.297c0-6.627-5.373-12-12-12z"/>
  </g>

  <!-- OTP Icon -->
  <g transform="translate(102, 0)">
    <circle cx="10" cy="10" r="8" fill="none" stroke="#33a16f" stroke-width="2"/>
    <line x1="10" y1="4" x2="10" y2="10" stroke="#33a16f" stroke-width="2"/>
    <line x1="10" y1="10" x2="14" y2="10" stroke="#33a16f" stroke-width="2"/>
  </g>

  <!-- Compress Icon -->
  <g transform="translate(128, 0)">
    <path d="M2 4h16v2H2zm0 4h12v2H2zm0 4h16v2H2z" fill="#33a16f"/>
  </g>

  <!-- Compare Code Icon -->
  <g transform="translate(154, 0)">
    <path d="M4 4l-3 3 3 3M16 4l3 3-3 3M7 14l6-8" stroke="#33a16f" stroke-width="2" fill="none"/>
  </g>

  <!-- Color Picker Icon -->
  <g transform="translate(180, 0)">
    <circle cx="10" cy="10" r="8" fill="none" stroke="#33a16f" stroke-width="2"/>
    <circle cx="10" cy="10" r="4" fill="#33a16f"/>
  </g>

  <!-- JSON Parser Icon -->
  <g transform="translate(206, 0)">
    <path d="M2 4v12h16V4H2zm2 3h12M2 11h16" stroke="#33a16f" stroke-width="2" fill="none"/>
  </g>

  <!-- SQL Icon -->
  <g transform="translate(232, 0)">
    <rect x="4" y="4" width="12" height="12" rx="2" stroke="#33a16f" stroke-width="2" fill="none"/>
    <text x="6" y="13" font-size="8" font-family="Arial" fill="#33a16f">SQL</text>
  </g>

  <!-- JSON Mapping Icon -->
  <g transform="translate(258, 0)">
    <path d="M2 4h6v4H2zM12 4h6v4h-6zM7 6h6M2 12h6v4H2zM12 12h6v4h-6z" stroke="#33a16f" stroke-width="2" fill="none"/>
  </g>

  <!-- Excel Icon -->
  <g transform="translate(284, 0)">
    <rect x="2" y="2" width="16" height="16" rx="2" stroke="#33a16f" stroke-width="2" fill="none"/>
    <path d="M6 6l8 8M14 6l-8 8" stroke="#33a16f" stroke-width="2"/>
  </g>

  <!-- Base64 to Image Icon -->
  <g transform="translate(310, 0)">
    <rect x="4" y="4" width="12" height="12" rx="2" stroke="#33a16f" stroke-width="2" fill="none"/>
    <circle cx="8" cy="8" r="2" fill="#33a16f"/>
  </g>

  <!-- Text to QR Code Icon -->
  <g transform="translate(336, 0)">
    <path d="M4 4h5v5H4zM11 4h5v5h-5zM4 11h5v5H4z" stroke="#33a16f" stroke-width="2" fill="none"/>
    <path d="M12 12h2v2h-2zM16 12h2v2h-2zM12 16h2v2h-2z" fill="#33a16f"/>
  </g>

  <!-- Overview Icon -->
  <g transform="translate(362, 0)">
    <rect x="2" y="2" width="16" height="16" rx="2" stroke="#33a16f" stroke-width="2" fill="none"/>
    <path d="M5 6h10M5 10h10M5 14h6" stroke="#33a16f" stroke-width="2"/>
  </g>

  <!-- UUID Generator Icon -->
  <g transform="translate(388, 0)">
    <rect x="2" y="4" width="16" height="12" rx="2" stroke="#33a16f" stroke-width="2" fill="none"/>
    <path d="M5 8h2M9 8h2M13 8h2M7 12h2M11 12h2" stroke="#33a16f" stroke-width="2"/>
  </g>

  <!-- Download Icon -->
  <g transform="translate(414, 0)">
    <path d="M4 10h12M10 4v8M6 8l4 4 4-4" stroke="#33a16f" stroke-width="2" fill="none"/>
    <path d="M4 14h12" stroke="#33a16f" stroke-width="2"/>
  </g>

  <!-- QR to Text Icon -->
  <g transform="translate(440, 0)">
    <path d="M2 4h6v6H2z" stroke="#33a16f" stroke-width="2" fill="none"/>
    <rect x="12" y="4" width="6" height="2" fill="#33a16f"/>
    <rect x="12" y="8" width="6" height="2" fill="#33a16f"/>
    <rect x="12" y="12" width="6" height="2" fill="#33a16f"/>
  </g>

  <!-- Image to Base64 Icon -->
  <g transform="translate(466, 0)">
    <rect x="2" y="4" width="8" height="8" rx="1" stroke="#33a16f" stroke-width="2" fill="none"/>
    <circle cx="5" cy="7" r="1" fill="#33a16f"/>
    <text x="12" y="11" font-size="6" font-family="Arial" fill="#33a16f">64</text>
  </g>
</svg>
