<?xml version="1.0" encoding="UTF-8" standalone="no"?>
<svg
   width="564"
   height="200"
   viewBox="0 0 564 200"
   fill="#000000"
   version="1.1"
   id="svg17"
   sodipodi:docname="Sprite.svg"
   inkscape:version="1.4.2 (ebf0e940, 2025-05-08)"
   xmlns:inkscape="http://www.inkscape.org/namespaces/inkscape"
   xmlns:sodipodi="http://sodipodi.sourceforge.net/DTD/sodipodi-0.dtd"
   xmlns="http://www.w3.org/2000/svg"
   xmlns:svg="http://www.w3.org/2000/svg">
  <defs
     id="defs17" />
  <sodipodi:namedview
     id="namedview17"
     pagecolor="#ffffff"
     bordercolor="#000000"
     borderopacity="0.25"
     inkscape:showpageshadow="2"
     inkscape:pageopacity="0.0"
     inkscape:pagecheckerboard="0"
     inkscape:deskcolor="#d1d1d1"
     inkscape:zoom="8.4112082"
     inkscape:cx="212.21684"
     inkscape:cy="14.801679"
     inkscape:window-width="1472"
     inkscape:window-height="894"
     inkscape:window-x="0"
     inkscape:window-y="34"
     inkscape:window-maximized="1"
     inkscape:current-layer="svg17"
     showgrid="true">
    <inkscape:grid
       id="grid17"
       units="px"
       originx="0"
       originy="0"
       spacingx="5"
       spacingy="5"
       empcolor="#0099e5"
       empopacity="0.30196078"
       color="#0099e5"
       opacity="0.14901961"
       empspacing="20"
       enabled="true"
       visible="true" />
  </sodipodi:namedview>
  <!-- Menu Icon -->
  <g
     transform="translate(0, 2)"
     id="g3"
     inkscape:label="menu">
    <rect
       x="0"
       y="0"
       width="20"
       height="2"
       rx="1"
       id="rect1" />
    <rect
       x="0"
       y="6"
       width="20"
       height="2"
       rx="1"
       id="rect2" />
    <rect
       x="0"
       y="12"
       width="20"
       height="2"
       rx="1"
       id="rect3" />
  </g>
  <!-- Sun Icon -->
  <g
     transform="translate(26, 0)"
     id="g10"
     inkscape:label="sun_mode">
    <circle
       cx="10"
       cy="10"
       r="4"
       id="circle3" />
    <line
       x1="10"
       y1="0"
       x2="10"
       y2="4"
       stroke="#000000"
       stroke-width="2"
       id="line3" />
    <line
       x1="10"
       y1="16"
       x2="10"
       y2="20"
       stroke="#000000"
       stroke-width="2"
       id="line4" />
    <line
       x1="0"
       y1="10"
       x2="4"
       y2="10"
       stroke="#000000"
       stroke-width="2"
       id="line5" />
    <line
       x1="16"
       y1="10"
       x2="20"
       y2="10"
       stroke="#000000"
       stroke-width="2"
       id="line6" />
    <line
       x1="3"
       y1="3"
       x2="6"
       y2="6"
       stroke="#000000"
       stroke-width="2"
       id="line7" />
    <line
       x1="14"
       y1="14"
       x2="17"
       y2="17"
       stroke="#000000"
       stroke-width="2"
       id="line8" />
    <line
       x1="3"
       y1="17"
       x2="6"
       y2="14"
       stroke="#000000"
       stroke-width="2"
       id="line9" />
    <line
       x1="14"
       y1="6"
       x2="17"
       y2="3"
       stroke="#000000"
       stroke-width="2"
       id="line10" />
  </g>
  <!-- Sleep Icon (Zzz) -->
  <g
     transform="translate(52, 2)"
     id="g12"
     inkscape:label="dark_mode">
    <path
       d="M3 4h6l-4 4h4v1H3l4-4H3V4z"
       fill="#000000"
       id="path10" />
    <path
       d="M7 8h4l-2.5 2.5h2.5v1H7l2.5-2.5H7V8z"
       fill="#000000"
       id="path11" />
    <path
       d="M10 12h3l-1.5 1.5h1.5v1h-3l1.5-1.5H10V12z"
       fill="#000000"
       id="path12" />
  </g>
  <!-- GitHub Icon -->
  <g
     transform="translate(76, 0)"
     id="g13"
     inkscape:label="github">
    <path
       fill="#000000"
       transform="scale(0.8)"
       d="M12 .297c-6.63 0-12 5.373-12 12c0 5.303 3.438 9.8 8.205 11.385c.6.113.82-.258.82-.577c0-.285-.01-1.04-.015-2.04c-3.338.724-4.042-1.61-4.042-1.61C4.422 18.07 3.633 17.7 3.633 17.7c-1.087-.744.084-.729.084-.729c1.205.084 1.838 1.236 1.838 1.236c1.07 1.835 2.809 1.305 3.495.998c.108-.776.417-1.305.76-1.605c-2.665-.3-5.466-1.332-5.466-5.93c0-1.31.465-2.38 1.235-3.22c-.135-.303-.54-1.523.105-3.176c0 0 1.005-.322 3.3 1.23c.96-.267 1.98-.399 3-.405c1.02.006 2.04.138 3 .405c2.28-1.552 3.285-1.23 3.285-1.23c.645 1.653.24 2.873.12 3.176c.765.84 1.23 1.91 1.23 3.22c0 4.61-2.805 5.625-5.475 5.92c.42.36.81 1.096.81 2.22c0 1.606-.015 2.896-.015 3.286c0 .315.21.69.825.57C20.565 22.092 24 17.592 24 12.297c0-6.627-5.373-12-12-12z"
       id="path13" />
  </g>
  <!-- Search Icon -->
  <g
     transform="translate(100, 0)"
     id="g14"
     inkscape:label="search">
    <circle
       cx="8"
       cy="8"
       r="6"
       fill="none"
       stroke="#000000"
       stroke-width="2"
       id="circle13" />
    <line
       x1="12.5"
       y1="12.5"
       x2="17"
       y2="17"
       stroke="#000000"
       stroke-width="2"
       id="line13" />
  </g>
  <!-- Close Icon (X) -->
  <g
     transform="translate(124, 0)"
     id="g15"
     inkscape:label="close">
    <line
       x1="6"
       y1="6"
       x2="14"
       y2="14"
       stroke="#000000"
       stroke-width="2"
       id="line14" />
    <line
       x1="14"
       y1="6"
       x2="6"
       y2="14"
       stroke="#000000"
       stroke-width="2"
       id="line15" />
  </g>
  <!-- Plus Icon (+) -->
  <g
     transform="translate(148, 0)"
     id="g17"
     inkscape:label="plus">
    <line
       x1="10"
       y1="4"
       x2="10"
       y2="16"
       stroke="#000000"
       stroke-width="2"
       stroke-linecap="round"
       id="line16" />
    <line
       x1="4"
       y1="10"
       x2="16"
       y2="10"
       stroke="#000000"
       stroke-width="2"
       stroke-linecap="round"
       id="line17" />
  </g>
  <g
     id="g20"
     inkscape:label="copy"
     transform="translate(-1.0485365,1.6776585)">
    <rect
       style="fill:none;stroke:#000000;stroke-opacity:1;paint-order:markers fill stroke"
       id="rect18"
       width="10.295437"
       height="13.014986"
       x="171.17619"
       y="3.263459"
       ry="1.9091531" />
    <path
       id="rect18-7"
       style="fill:none;stroke:#000000;stroke-opacity:1;paint-order:markers fill stroke"
       d="m 173.6631,2.4204913 c -0.0375,-0.8885091 0.81863,-1.47673459 1.75607,-1.47673459 v 0 h 6.47713 c 1.05767,0 1.90916,0.85148229 1.90916,1.90915309 v 9.1966792 c 0,0.844637 -0.6237,1.598123 -1.34076,1.568745"
       sodipodi:nodetypes="cscsssc" />
  </g>
  <g
     id="g21"
     inkscape:label="JSON">
    <path
       d="m 194.23505,17.022186 h -1.10758 q -1.32171,0 -2.14871,-0.738389 -0.81961,-0.731004 -0.81961,-2.119174 v -1.100198 q 0,-1.247878 -0.61286,-1.949346 -0.61287,-0.708853 -1.87551,-0.708853 H 187.2942 V 9.2543403 h 0.37658 q 1.26264,0 1.87551,-0.7014688 0.61286,-0.7088528 0.61286,-1.9567292 V 5.4959435 q 0,-1.3881701 0.81961,-2.1191746 0.827,-0.7383884 2.14871,-0.7383884 h 1.10758 v 1.0189759 h -0.84175 q -1.00422,0 -1.46202,0.4651848 -0.45041,0.4651846 -0.45041,1.4989284 v 1.2921796 q 0,1.0263599 -0.56856,1.7278289 -0.56857,0.6940852 -1.58015,1.1001982 v 0.177214 q 1.01158,0.4061127 1.58015,1.1075817 0.56856,0.694085 0.56856,1.720446 v 1.292179 q 0,1.033744 0.45041,1.498928 0.4578,0.465185 1.46202,0.465185 h 0.84175 z m 9.70242,-6.61596 h -0.37657 q -1.26265,0 -1.87551,0.708853 -0.61285,0.701468 -0.61285,1.949346 v 1.100198 q 0,1.38817 -0.827,2.119174 -0.81961,0.738389 -2.14133,0.738389 h -1.10758 V 16.00321 h 0.84176 q 1.0042,0 1.45463,-0.465185 0.4578,-0.465184 0.4578,-1.498928 v -1.292179 q 0,-1.026361 0.56855,-1.720446 0.56856,-0.701469 1.58016,-1.1075817 v -0.177214 q -1.0116,-0.406113 -1.58016,-1.1001982 -0.56855,-0.701469 -0.56855,-1.7278289 V 5.6214696 q 0,-1.0337438 -0.4578,-1.4989284 -0.45043,-0.4651848 -1.45463,-0.4651848 h -0.84176 V 2.6383805 h 1.10758 q 1.32172,0 2.14133,0.7383884 0.827,0.7310045 0.827,2.1191746 v 1.1001988 q 0,1.2478764 0.61285,1.9567292 0.61286,0.7014688 1.87551,0.7014688 h 0.37657 z"
       id="text20"
       style="fill:#000000;stroke-width:1.26018;paint-order:markers fill stroke"
       inkscape:label="text20"
       aria-label="{}" />
  </g>
  <g
     id="g7"
     inkscape:label="edit"
     transform="matrix(0.77270787,0,0,0.78196026,46.932654,1.8943722)">
    <path
       id="rect4"
       style="fill:none;stroke:#000000;stroke-opacity:1;paint-order:markers fill stroke"
       d="m 225.61646,14.53667 v 2.091802 c 0,1.057671 -0.85148,1.909153 -1.90915,1.909153 h -12.72992 c -1.05767,0 -1.90915,-0.851482 -1.90915,-1.909153 V 3.8081294 c 0,-1.0576708 0.85148,-1.9091531 1.90915,-1.9091531 v 0 l 1.83781,1e-7"
       sodipodi:nodetypes="csssssscc" />
    <g
       id="g6"
       transform="rotate(-40.487675,225.77673,14.40388)"
       inkscape:label="pencil">
      <rect
         style="fill:none;stroke:#000000;stroke-opacity:1;paint-order:markers fill stroke"
         id="rect5"
         width="7.5405884"
         height="3.5697913"
         x="222.11598"
         y="3.8625131"
         ry="0" />
      <path
         id="rect5-2"
         style="fill:none;stroke:#000000;stroke-opacity:1;paint-order:markers fill stroke"
         d="m 229.77924,7.4325649 h 3.17969 c 0.98883,0 -0.21485,-0.796324 -0.21485,-1.785156 0,-0.988832 1.20368,-1.7851565 0.21485,-1.7851565 h -3.17969 z"
         sodipodi:nodetypes="cssscc" />
      <path
         id="rect5-2-9"
         style="fill:none;stroke:#000000;stroke-opacity:1;paint-order:markers fill stroke"
         d="m 222.07139,3.8622486 h -1.17969 c -0.98883,0 -3.78515,0.79633 -3.78515,1.78516 0,0.9888301 2.79632,1.7851601 3.78515,1.7851601 h 1.17969 z"
         sodipodi:nodetypes="cssscc" />
    </g>
  </g>
  <!-- folder icon -->
   <g
     transform="translate(230, -1)"
     inkscape:label="folder">
    <path
       d="M2 6h6l2 2h8v8H2z"
       fill="none"
       stroke="#000000"
       stroke-width="1"
       stroke-linejoin="round" />
  </g>
    <!-- History Icon -->
  <g
     transform="translate(255, 0)"
     inkscape:label="history">
    <circle
       cx="10"
       cy="10"
       r="8"
       fill="none"
       stroke="#000000"
       stroke-width="1" />
    <line
       x1="10"
       y1="10"
       x2="10"
       y2="5"
       stroke="#000000"
       stroke-width="1"
       stroke-linecap="round" />
    <line
       x1="10"
       y1="10"
       x2="14"
       y2="12"
       stroke="#000000"
       stroke-width="1"
       stroke-linecap="round" />
  </g>
<g transform="translate(280, 0)" inkscape:label="settings">
    <svg xmlns="http://www.w3.org/2000/svg" width="20px" height="20px" viewBox="0 0 24 24" fill="none">
<rect width="24" height="24" fill="none"/>
<path d="M13.5 2L13.9961 1.93798C13.9649 1.68777 13.7522 1.5 13.5 1.5V2ZM10.5 2V1.5C10.2478 1.5 10.0351 1.68777 10.0039 1.93798L10.5 2ZM13.7747 4.19754L13.2786 4.25955C13.3047 4.46849 13.4589 4.63867 13.6642 4.68519L13.7747 4.19754ZM16.2617 5.22838L15.995 5.6513C16.1731 5.76362 16.4024 5.75233 16.5687 5.62306L16.2617 5.22838ZM18.0104 3.86826L18.364 3.51471C18.1857 3.3364 17.9025 3.31877 17.7034 3.47359L18.0104 3.86826ZM20.1317 5.98958L20.5264 6.29655C20.6812 6.09751 20.6636 5.81434 20.4853 5.63603L20.1317 5.98958ZM18.7716 7.73831L18.3769 7.43134C18.2477 7.59754 18.2364 7.82693 18.3487 8.00503L18.7716 7.73831ZM19.8025 10.2253L19.3148 10.3358C19.3613 10.5411 19.5315 10.6953 19.7404 10.7214L19.8025 10.2253ZM22 10.5H22.5C22.5 10.2478 22.3122 10.0351 22.062 10.0039L22 10.5ZM22 13.5L22.062 13.9961C22.3122 13.9649 22.5 13.7522 22.5 13.5H22ZM19.8025 13.7747L19.7404 13.2786C19.5315 13.3047 19.3613 13.4589 19.3148 13.6642L19.8025 13.7747ZM18.7716 16.2617L18.3487 15.995C18.2364 16.1731 18.2477 16.4025 18.3769 16.5687L18.7716 16.2617ZM20.1317 18.0104L20.4853 18.364C20.6636 18.1857 20.6812 17.9025 20.5264 17.7034L20.1317 18.0104ZM18.0104 20.1317L17.7034 20.5264C17.9025 20.6812 18.1857 20.6636 18.364 20.4853L18.0104 20.1317ZM16.2617 18.7716L16.5687 18.3769C16.4024 18.2477 16.1731 18.2364 15.995 18.3487L16.2617 18.7716ZM13.7747 19.8025L13.6642 19.3148C13.4589 19.3613 13.3047 19.5315 13.2786 19.7404L13.7747 19.8025ZM13.5 22V22.5C13.7522 22.5 13.9649 22.3122 13.9961 22.062L13.5 22ZM10.5 22L10.0039 22.062C10.0351 22.3122 10.2478 22.5 10.5 22.5V22ZM10.2253 19.8025L10.7214 19.7404C10.6953 19.5315 10.5411 19.3613 10.3358 19.3148L10.2253 19.8025ZM7.73832 18.7716L8.00504 18.3487C7.82694 18.2364 7.59756 18.2477 7.43135 18.3769L7.73832 18.7716ZM5.98959 20.1317L5.63604 20.4853C5.81435 20.6636 6.09752 20.6812 6.29656 20.5264L5.98959 20.1317ZM3.86827 18.0104L3.4736 17.7034C3.31878 17.9025 3.33641 18.1857 3.51472 18.364L3.86827 18.0104ZM5.22839 16.2617L5.62307 16.5687C5.75234 16.4025 5.76363 16.1731 5.65131 15.995L5.22839 16.2617ZM4.19754 13.7747L4.68519 13.6642C4.63867 13.4589 4.46849 13.3047 4.25955 13.2786L4.19754 13.7747ZM2 13.5H1.5C1.5 13.7522 1.68777 13.9649 1.93798 13.9961L2 13.5ZM2 10.5L1.93798 10.0039C1.68777 10.0351 1.5 10.2478 1.5 10.5H2ZM4.19754 10.2253L4.25955 10.7214C4.46849 10.6953 4.63867 10.5411 4.68519 10.3358L4.19754 10.2253ZM5.22839 7.73831L5.65131 8.00503C5.76363 7.82693 5.75234 7.59755 5.62307 7.43134L5.22839 7.73831ZM3.86827 5.98959L3.51472 5.63603C3.33641 5.81434 3.31878 6.09751 3.47359 6.29656L3.86827 5.98959ZM5.98959 3.86827L6.29656 3.47359C6.09752 3.31878 5.81434 3.33641 5.63604 3.51471L5.98959 3.86827ZM7.73832 5.22839L7.43135 5.62306C7.59755 5.75233 7.82694 5.76363 8.00504 5.6513L7.73832 5.22839ZM10.2253 4.19754L10.3358 4.68519C10.5411 4.63867 10.6953 4.46849 10.7214 4.25955L10.2253 4.19754ZM13.5 1.5H10.5V2.5H13.5V1.5ZM14.2708 4.13552L13.9961 1.93798L13.0039 2.06202L13.2786 4.25955L14.2708 4.13552ZM16.5284 4.80547C15.7279 4.30059 14.8369 3.92545 13.8851 3.70989L13.6642 4.68519C14.503 4.87517 15.2886 5.20583 15.995 5.6513L16.5284 4.80547ZM16.5687 5.62306L18.3174 4.26294L17.7034 3.47359L15.9547 4.83371L16.5687 5.62306ZM17.6569 4.22182L19.7782 6.34314L20.4853 5.63603L18.364 3.51471L17.6569 4.22182ZM19.7371 5.68261L18.3769 7.43134L19.1663 8.04528L20.5264 6.29655L19.7371 5.68261ZM20.2901 10.1149C20.0746 9.16313 19.6994 8.27213 19.1945 7.47158L18.3487 8.00503C18.7942 8.71138 19.1248 9.49695 19.3148 10.3358L20.2901 10.1149ZM22.062 10.0039L19.8645 9.72917L19.7404 10.7214L21.938 10.9961L22.062 10.0039ZM22.5 13.5V10.5H21.5V13.5H22.5ZM19.8645 14.2708L22.062 13.9961L21.938 13.0039L19.7404 13.2786L19.8645 14.2708ZM19.1945 16.5284C19.6994 15.7279 20.0746 14.8369 20.2901 13.8851L19.3148 13.6642C19.1248 14.503 18.7942 15.2886 18.3487 15.995L19.1945 16.5284ZM20.5264 17.7034L19.1663 15.9547L18.3769 16.5687L19.7371 18.3174L20.5264 17.7034ZM18.364 20.4853L20.4853 18.364L19.7782 17.6569L17.6569 19.7782L18.364 20.4853ZM15.9547 19.1663L17.7034 20.5264L18.3174 19.7371L16.5687 18.3769L15.9547 19.1663ZM13.8851 20.2901C14.8369 20.0746 15.7279 19.6994 16.5284 19.1945L15.995 18.3487C15.2886 18.7942 14.503 19.1248 13.6642 19.3148L13.8851 20.2901ZM13.9961 22.062L14.2708 19.8645L13.2786 19.7404L13.0039 21.938L13.9961 22.062ZM10.5 22.5H13.5V21.5H10.5V22.5ZM9.72917 19.8645L10.0039 22.062L10.9961 21.938L10.7214 19.7404L9.72917 19.8645ZM7.4716 19.1945C8.27214 19.6994 9.16314 20.0746 10.1149 20.2901L10.3358 19.3148C9.49696 19.1248 8.71139 18.7942 8.00504 18.3487L7.4716 19.1945ZM6.29656 20.5264L8.04529 19.1663L7.43135 18.3769L5.68262 19.7371L6.29656 20.5264ZM3.51472 18.364L5.63604 20.4853L6.34315 19.7782L4.22183 17.6569L3.51472 18.364ZM4.83372 15.9547L3.4736 17.7034L4.26295 18.3174L5.62307 16.5687L4.83372 15.9547ZM3.70989 13.8851C3.92545 14.8369 4.30059 15.7279 4.80547 16.5284L5.65131 15.995C5.20584 15.2886 4.87517 14.503 4.68519 13.6642L3.70989 13.8851ZM1.93798 13.9961L4.13552 14.2708L4.25955 13.2786L2.06202 13.0039L1.93798 13.9961ZM1.5 10.5V13.5H2.5V10.5H1.5ZM4.13552 9.72917L1.93798 10.0039L2.06202 10.9961L4.25955 10.7214L4.13552 9.72917ZM4.80547 7.47159C4.30059 8.27213 3.92545 9.16313 3.70989 10.1149L4.68519 10.3358C4.87517 9.49696 5.20583 8.71138 5.65131 8.00503L4.80547 7.47159ZM3.47359 6.29656L4.83371 8.04528L5.62307 7.43134L4.26295 5.68262L3.47359 6.29656ZM5.63604 3.51471L3.51472 5.63603L4.22182 6.34314L6.34314 4.22182L5.63604 3.51471ZM8.04529 4.83371L6.29656 3.47359L5.68262 4.26294L7.43135 5.62306L8.04529 4.83371ZM10.1149 3.70989C9.16313 3.92545 8.27214 4.30059 7.4716 4.80547L8.00504 5.6513C8.71139 5.20583 9.49696 4.87517 10.3358 4.68519L10.1149 3.70989ZM10.0039 1.93798L9.72917 4.13552L10.7214 4.25955L10.9961 2.06202L10.0039 1.93798Z" fill="#000000"/>
<circle cx="12" cy="12" r="4" stroke="#000000" stroke-linejoin="round"/>
</svg>
  </g>
</svg>
