<svg width="552" height="20" viewBox="0 0 552 20" xmlns="http://www.w3.org/2000/svg" fill="#33a16f">
  <!-- Menu Icon -->
  <g transform="translate(0, 2)">
    <rect x="0" y="0" width="20" height="2" rx="1"/>
    <rect x="0" y="6" width="20" height="2" rx="1"/>
    <rect x="0" y="12" width="20" height="2" rx="1"/>
  </g>

  <!-- Sun Icon -->
  <g transform="translate(26, 0)">
    <circle cx="10" cy="10" r="4"/>
    <line x1="10" y1="0" x2="10" y2="4" stroke="#33a16f" stroke-width="2"/>
    <line x1="10" y1="16" x2="10" y2="20" stroke="#33a16f" stroke-width="2"/>
    <line x1="0" y1="10" x2="4" y2="10" stroke="#33a16f" stroke-width="2"/>
    <line x1="16" y1="10" x2="20" y2="10" stroke="#33a16f" stroke-width="2"/>
    <line x1="3" y1="3" x2="6" y2="6" stroke="#33a16f" stroke-width="2"/>
    <line x1="14" y1="14" x2="17" y2="17" stroke="#33a16f" stroke-width="2"/>
    <line x1="3" y1="17" x2="6" y2="14" stroke="#33a16f" stroke-width="2"/>
    <line x1="14" y1="6" x2="17" y2="3" stroke="#33a16f" stroke-width="2"/>
  </g>

  <!-- Sleep Icon (Zzz) -->
  <g transform="translate(52, 2)">
    <path d="M3 4h6l-4 4h4v1H3l4-4H3V4z" fill="#33a16f"/>
    <path d="M7 8h4l-2.5 2.5h2.5v1H7l2.5-2.5H7V8z" fill="#33a16f"/>
    <path d="M10 12h3l-1.5 1.5h1.5v1h-3l1.5-1.5H10V12z" fill="#33a16f"/>
  </g>

  <!-- GitHub Icon -->
  <g transform="translate(76, 0)">
    <path fill="#33a16f" transform="scale(0.8)" d="M12 .297c-6.63 0-12 5.373-12 12c0 5.303 3.438 9.8 8.205 11.385c.6.113.82-.258.82-.577c0-.285-.01-1.04-.015-2.04c-3.338.724-4.042-1.61-4.042-1.61C4.422 18.07 3.633 17.7 3.633 17.7c-1.087-.744.084-.729.084-.729c1.205.084 1.838 1.236 1.838 1.236c1.07 1.835 2.809 1.305 3.495.998c.108-.776.417-1.305.76-1.605c-2.665-.3-5.466-1.332-5.466-5.93c0-1.31.465-2.38 1.235-3.22c-.135-.303-.54-1.523.105-3.176c0 0 1.005-.322 3.3 1.23c.96-.267 1.98-.399 3-.405c1.02.006 2.04.138 3 .405c2.28-1.552 3.285-1.23 3.285-1.23c.645 1.653.24 2.873.12 3.176c.765.84 1.23 1.91 1.23 3.22c0 4.61-2.805 5.625-5.475 5.92c.42.36.81 1.096.81 2.22c0 1.606-.015 2.896-.015 3.286c0 .315.21.69.825.57C20.565 22.092 24 17.592 24 12.297c0-6.627-5.373-12-12-12z"/>
  </g>

  <!-- OTP Icon -->
  <g transform="translate(102, 0)">
    <circle cx="10" cy="10" r="8" fill="none" stroke="#33a16f" stroke-width="2"/>
    <line x1="10" y1="4" x2="10" y2="10" stroke="#33a16f" stroke-width="2"/>
    <line x1="10" y1="10" x2="14" y2="10" stroke="#33a16f" stroke-width="2"/>
  </g>

  <!-- Compress Icon -->
  <g transform="translate(128, 2)">
    <path d="M2 2h14v2H2zm0 4h10v2H2zm0 4h12v2H2zm0 4h8v2H2z" fill="#33a16f"/>
    <path d="M16 6l2 2-2 2" stroke="#33a16f" stroke-width="1.5" fill="none"/>
  </g>

  <!-- Compare Code Icon -->
  <g transform="translate(154, 0)">
    <path d="M4 4l-3 3 3 3M16 4l3 3-3 3M7 14l6-8" stroke="#33a16f" stroke-width="2" fill="none"/>
  </g>

  <!-- Color Picker Icon -->
  <g transform="translate(180, 0)">
    <circle cx="10" cy="10" r="8" fill="none" stroke="#33a16f" stroke-width="2"/>
    <path d="M10 2A8 8 0 0 1 18 10" fill="#33a16f"/>
    <path d="M10 2A8 8 0 0 0 2 10" fill="#33a16f" opacity="0.7"/>
    <path d="M10 2A8 8 0 0 0 10 18" fill="#33a16f" opacity="0.4"/>
    <circle cx="10" cy="10" r="2" fill="white"/>
  </g>

  <!-- JSON Parser Icon -->
  <g transform="translate(206, 2)">
    <path d="M4 2c-2 0-2 2-2 3v2c0 1-1 1-1 2s1 1 1 2v2c0 1 0 3 2 3M16 2c2 0 2 2 2 3v2c0 1 1 1 1 2s-1 1-1 2v2c0 1 0 3-2 3" stroke="#33a16f" stroke-width="1.5" fill="none"/>
    <circle cx="8" cy="8" r="1" fill="#33a16f"/>
    <circle cx="12" cy="8" r="1" fill="#33a16f"/>
  </g>

  <!-- SQL Icon - Improved -->
  <g transform="translate(232, 0)">
    <rect x="2" y="4" width="16" height="12" rx="2" stroke="#33a16f" stroke-width="2" fill="none"/>
    <ellipse cx="10" cy="8" rx="6" ry="2" fill="#33a16f" opacity="0.3"/>
    <ellipse cx="10" cy="12" rx="6" ry="2" fill="none" stroke="#33a16f" stroke-width="1"/>
    <line x1="4" y1="8" x2="4" y2="12" stroke="#33a16f" stroke-width="1"/>
    <line x1="16" y1="8" x2="16" y2="12" stroke="#33a16f" stroke-width="1"/>
  </g>

  <!-- JSON Mapping Icon -->
  <g transform="translate(258, 0)">
    <path d="M2 4h6v4H2zM12 4h6v4h-6zM7 6h6M2 12h6v4H2zM12 12h6v4h-6z" stroke="#33a16f" stroke-width="2" fill="none"/>
  </g>

  <!-- Excel Icon -->
  <g transform="translate(284, 0)">
    <rect x="2" y="2" width="16" height="16" rx="2" stroke="#33a16f" stroke-width="2" fill="none"/>
    <path d="M6 6l8 8M14 6l-8 8" stroke="#33a16f" stroke-width="2"/>
  </g>

  <!-- Base64 to Image Icon -->
  <g transform="translate(310, 0)">
    <rect x="4" y="4" width="12" height="12" rx="2" stroke="#33a16f" stroke-width="2" fill="none"/>
    <circle cx="8" cy="8" r="2" fill="#33a16f"/>
    <path d="M6 12l2-2 2 2 4-4" stroke="#33a16f" stroke-width="1.5" fill="none"/>
  </g>

  <!-- Text to QR Code Icon -->
  <g transform="translate(336, 0)">
    <path d="M4 4h5v5H4zM11 4h5v5h-5zM4 11h5v5H4z" stroke="#33a16f" stroke-width="2" fill="none"/>
    <rect x="5.5" y="5.5" width="2" height="2" fill="#33a16f"/>
    <rect x="12.5" y="5.5" width="2" height="2" fill="#33a16f"/>
    <rect x="5.5" y="12.5" width="2" height="2" fill="#33a16f"/>
    <path d="M12 12h2v2h-2zM16 12h2v2h-2zM12 16h2v2h-2z" fill="#33a16f"/>
  </g>

  <!-- Overview Icon -->
  <g transform="translate(362, 0)">
    <rect x="2" y="2" width="16" height="16" rx="2" stroke="#33a16f" stroke-width="2" fill="none"/>
    <path d="M5 6h10M5 10h10M5 14h6" stroke="#33a16f" stroke-width="2"/>
  </g>

  <!-- UUID Generator Icon -->
  <g transform="translate(388, 2)">
    <rect x="2" y="2" width="16" height="12" rx="2" stroke="#33a16f" stroke-width="2" fill="none"/>
    <text x="4" y="9" font-size="4" font-family="monospace" fill="#33a16f">UUID</text>
    <path d="M5 11h2M9 11h2M13 11h2" stroke="#33a16f" stroke-width="1"/>
  </g>

  <!-- Download Icon - Improved -->
  <g transform="translate(414, 0)">
    <path d="M10 2v12" stroke="#33a16f" stroke-width="2"/>
    <path d="M6 10l4 4 4-4" stroke="#33a16f" stroke-width="2" fill="none"/>
    <rect x="4" y="16" width="12" height="2" rx="1" fill="#33a16f"/>
    <circle cx="10" cy="2" r="1" fill="#33a16f"/>
  </g>

  <!-- QR to Text Icon -->
  <g transform="translate(440, 0)">
    <path d="M2 4h6v6H2z" stroke="#33a16f" stroke-width="2" fill="none"/>
    <rect x="3" y="5" width="4" height="4" fill="#33a16f" opacity="0.3"/>
    <rect x="4" y="6" width="2" height="2" fill="#33a16f"/>
    <rect x="12" y="4" width="6" height="2" fill="#33a16f"/>
    <rect x="12" y="8" width="6" height="2" fill="#33a16f"/>
    <rect x="12" y="12" width="6" height="2" fill="#33a16f"/>
  </g>

  <!-- Image to Base64 Icon -->
  <g transform="translate(466, 0)">
    <rect x="2" y="4" width="8" height="8" rx="1" stroke="#33a16f" stroke-width="2" fill="none"/>
    <circle cx="5" cy="7" r="1" fill="#33a16f"/>
    <path d="M3 10l2-1.5 2 1.5 2-2" stroke="#33a16f" stroke-width="1" fill="none"/>
    <text x="12" y="9" font-size="5" font-family="monospace" fill="#33a16f">64</text>
    <path d="M11 4l4 4-4 4" stroke="#33a16f" stroke-width="1" fill="none"/>
  </g>

  <!-- Search Icon -->
  <g transform="translate(492, 0)">
    <circle cx="8" cy="8" r="6" fill="none" stroke="#33a16f" stroke-width="2"/>
    <line x1="12.5" y1="12.5" x2="17" y2="17" stroke="#33a16f" stroke-width="2"/>
  </g>

  <!-- Close Icon (X) -->
  <g transform="translate(518, 0)">
    <line x1="6" y1="6" x2="14" y2="14" stroke="#33a16f" stroke-width="2"/>
    <line x1="14" y1="6" x2="6" y2="14" stroke="#33a16f" stroke-width="2"/>
  </g>
</svg>